<?xml version="1.0" encoding="utf-8"?>
<!-- Generator: Adobe Illustrator 27.2.0, SVG Export Plug-In . SVG Version: 6.00 Build 0)  -->
<svg version="1.1" id="Capa_1" xmlns="http://www.w3.org/2000/svg" xmlns:xlink="http://www.w3.org/1999/xlink" x="0px" y="0px"
	 viewBox="0 0 179.29 203.23" style="enable-background:new 0 0 179.29 203.23;" xml:space="preserve">
<style type="text/css">
	.st0{fill:#555748;}
</style>
<g>
	<path class="st0" d="M83.1,100.79c-15.92,3.16-29.24,6.87-39.97,11.15c-6.45,9.47-13.54,20.83-21.25,34.08l-5.58,9.78
		c-0.98,1.75-2.49,4.28-4.52,7.57c-2.24,3.86-4.59,5.79-7.05,5.79c-1.33,0-2.45-0.53-3.37-1.58C0.46,166.67,0,165.66,0,164.53
		c0-1.96,2.63-7.54,7.89-16.73c2.88-4.98,7.22-12.03,13.04-21.14c2.24-3.51,4.03-6.38,5.36-8.63c-4.21,1.19-8.07,2.56-11.57,4.1
		c-1.68,0.77-3.08,1.16-4.21,1.16c-1.4,0-2.49-0.63-3.26-1.89c-0.56-0.77-0.84-1.68-0.84-2.74c0-2.38,0.84-4.07,2.52-5.05
		c2.74-1.68,7.64-3.61,14.73-5.79c5.26-1.68,9.43-3.23,12.52-4.63c1.47-1.82,5.33-7.19,11.57-16.09
		C50.42,83.26,58,74.14,70.48,59.76c8.98-10.52,18.23-20.3,27.77-29.35c5.54-5.33,9.78-7.99,12.73-7.99c1.82,0,3.4,0.74,4.73,2.21
		c1.12,1.33,1.68,2.81,1.68,4.42c0,1.97-0.98,5.4-2.95,10.31c-3.37,8.63-6.59,17.85-9.68,27.67c-2.67,8.7-4.45,15.36-5.36,19.99
		c1.26,0,2.1-0.03,2.52-0.11c2.03-0.07,3.72-0.11,5.05-0.11c4.07,0,6.1,1.54,6.1,4.63c0,1.33-0.44,2.65-1.31,3.94
		c-0.88,1.3-1.88,2.09-3,2.37c-0.42,0.14-1.58,0.21-3.47,0.21c-4,0-6.98,0.25-8.94,0.74c-1.68,4.98-4.35,17.71-7.99,38.19
		c-1.89,13.61-2.81,21.95-2.74,25.04c0,5.05-1.51,7.57-4.52,7.57c-2.39,0-4.24-1.23-5.58-3.68c-0.98-1.68-1.47-3.96-1.47-6.84
		c0-9.68,1.72-22.72,5.15-39.13C80.96,111.55,82.26,105.2,83.1,100.79z M86.05,89.43c0.63-2.03,2.24-7.47,4.84-16.3
		c0.63-2.31,2.24-6.91,4.84-13.78c2.59-7.08,4.66-12.76,6.21-17.04c-4.56,3.02-9.19,7.01-13.89,11.99
		C71.5,72.1,59.82,86.66,53.02,97.95c2.59-0.63,8.17-2.21,16.73-4.73C72.2,92.51,77.63,91.25,86.05,89.43z"/>
	<path class="st0" d="M125.84,151.62c0.98-0.9,1.92-1.81,2.82-2.71c15.74-15.36,26.28-23.04,31.62-23.04c2.94,0,4.4,1.62,4.4,4.86
		c0,2.26-1.32,4.93-3.95,8.02c-14.38,16.79-21.57,31.59-21.57,44.39c0,4.14,1.13,8.1,3.39,11.86c1.05,1.73,1.58,3.09,1.58,4.07
		c0,0.9-0.45,1.77-1.36,2.6c-0.98,1.05-2.15,1.58-3.5,1.58c-3.09,0-5.69-1.96-7.79-5.87c-2.03-3.69-3.05-8.17-3.05-13.44
		c0-10.17,3.84-21.42,11.52-33.77c-10.24,6.55-19.77,18.15-28.58,34.79c-2.26,3.99-4.67,5.99-7.23,5.99c-1.28,0-2.33-0.45-3.16-1.36
		c-1.05-1.05-1.58-2.41-1.58-4.07c0-4.07,4.63-14.72,13.89-31.96c4.97-9.34,8.88-16.11,11.75-20.33c2.86-4.14,5.31-6.21,7.34-6.21
		c0.98,0,1.92,0.45,2.82,1.36c1.05,1.05,1.58,2.26,1.58,3.61c0,1.66-1.09,4.03-3.28,7.12C130.35,143.67,127.79,147.85,125.84,151.62
		z"/>
</g>
<path class="st0" d="M164.92,32.95c-1.43,0.74-2.86,1.47-4.31,2.16c-1.03,0.49-2.1,0.9-3.15,1.34c0.65-0.93,1.42-1.55,2.2-2.17
	c5.54-4.45,10.7-9.27,14.7-15.21c3.32-4.93,5.59-10.19,4.77-16.33c-0.36-2.67-2.55-3.54-4.71-1.94
	c-11.29,8.39-23.38,15.4-36.37,20.79c-4.18,1.73-8.43,3.3-12.65,4.92c-1.68,0.64-2.61,2.41-2.25,4.17c0,0.02,0.01,0.03,0.01,0.05
	c0.15,0.77,0.95,1.23,1.69,0.95c0.67-0.25,1.33-0.48,2.01-0.72c16.76-5.79,32.48-13.56,46.91-23.88c0.13-0.09,0.29-0.13,0.73-0.33
	c-0.53,2.8-1.38,5.24-2.72,7.51c-3.98,6.73-9.56,12.01-15.66,16.72c-3.85,2.97-7.96,5.6-12,8.32c-1.11,0.74-1.94,1.54-1.62,2.94
	c0.35,1.52,1.57,1.87,2.94,1.86c5.54-0.07,10.64-1.88,15.65-4c0.8-0.34,1.59-0.7,2.38-1.05c0.14,0.12,0.28,0.24,0.42,0.36
	c-0.96,1.47-1.77,3.07-2.89,4.4c-3.7,4.39-8.57,7.24-13.83,9.19c-5.9,2.19-11.99,3.85-18.02,5.68c-1.2,0.36-2.45,0.59-2.77,2.01
	c-0.33,1.49,0.65,2.36,1.75,3.1c3.58,2.42,7.6,2.85,11.76,2.48c1.76-0.15,3.5-0.5,5.63-0.82c-0.68,0.82-1.08,1.63-1.73,2.05
	c-2.64,1.69-5.23,3.54-8.08,4.79c-3.85,1.69-7.98,2.47-12.23,2.74c-2.28,0.15-5.27,0.19-8.02,0.41c-2.31,0.19-4.09,1.85-4.85,4.04
	c-0.07,0.22-0.18,0.42-0.35,0.61c-0.76,0.89,0.11,2.2,1.22,1.84c4.01-1.3,8.22-1.94,12.52-2.19c4.48-0.26,8.75-1.26,12.92-2.77
	c3.67-1.33,7.12-3.11,9.97-5.84c2.54-2.44,4.38-5.28,4.74-8.88c0.1-1.02-0.36-2.06-1.25-2.58c-1.41-0.83-2.39,0.05-3.52,0.32
	c-2.76,0.64-5.53,1.25-8.3,1.87c-0.03-0.14-0.06-0.28-0.09-0.43c3.49-1.33,7.04-2.53,10.47-4.01c5.84-2.51,11.31-5.62,15.58-10.49
	c2.83-3.23,4.51-6.94,4.68-11.26C169.34,32.53,167.68,31.52,164.92,32.95z"/>
</svg>
