<svg width="20" height="20" viewBox="0 0 20 20" fill="none" xmlns="http://www.w3.org/2000/svg">
<g clip-path="url(#clip0_3223_26532)">
<path d="M17.7666 6.17431L6.50146 17.4395L0.964844 18.5468L2.07217 13.0102L13.3373 1.74501C13.6272 1.45466 13.9715 1.22432 14.3505 1.06716C14.7295 0.909997 15.1358 0.829102 15.5461 0.829102C15.9564 0.829102 16.3626 0.909997 16.7416 1.06716C17.1206 1.22432 17.4649 1.45466 17.7548 1.74501L17.7666 1.75682C18.057 2.04672 18.2873 2.39101 18.4445 2.77001C18.6017 3.14901 18.6825 3.55527 18.6825 3.96556C18.6825 4.37586 18.6017 4.78212 18.4445 5.16112C18.2873 5.54012 18.057 5.88441 17.7666 6.17431V6.17431Z" fill="#F96073" stroke="#F96073" stroke-width="1.5" stroke-linecap="round" stroke-linejoin="round"/>
</g>
<defs>
<clipPath id="clip0_3223_26532">
<rect width="20" height="20" fill="white"/>
</clipPath>
</defs>
</svg>
