<svg width="129" height="202" viewBox="0 0 129 202" fill="none" xmlns="http://www.w3.org/2000/svg">
<path d="M49.0608 198.471C60.8325 197.057 72.4633 194.582 82.7265 188.477C102.008 177.005 117.821 155.801 125.164 134.971C133.599 111.042 126.667 85.3443 118.37 62.3093C110.96 41.7433 99.2732 22.5587 79.2722 11.9656C56.4214 -0.129462 29.2183 -0.317574 3.96095 0.114497C2.34091 0.140951 2.33504 2.63345 3.96095 2.60699C24.9627 2.2484 46.7335 2.32188 66.7932 9.27324C89.0364 16.9829 103.775 33.7808 112.75 54.8524C121.775 76.0356 130.142 102.31 125.267 125.298C120.674 146.96 105.668 168.355 88.0562 181.817C76.5838 190.588 63.2655 194.265 49.0579 195.978C34.7006 197.712 20.2259 198.706 5.78643 199.505C4.17226 199.593 4.16052 202.086 5.78643 201.998C20.2259 201.198 34.6976 200.193 49.0579 198.471H49.0608Z" fill="#CFB7B7"/>
<path d="M74.8141 179.736C94.9384 173.128 107.849 158.441 114.816 138.971C128.727 100.085 119.544 51.0519 81.7961 28.643C59.5999 15.4663 30.8471 13.6939 5.6162 12.2536C1.56024 12.0214 1.57491 18.2527 5.6162 18.4849C26.8234 19.6959 49.7417 21.2537 69.5373 29.5012C86.6797 36.6436 99.9423 50.3612 107.514 67.0562C123.148 101.525 115.25 158.582 75.1135 173.055C52.521 181.2 26.7471 180.471 3.04528 180.556C-1.01069 180.57 -1.01949 186.802 3.04528 186.787C26.706 186.702 52.0837 187.204 74.8141 179.739V179.736Z" fill="#CFB7B7"/>
<path d="M102.88 135.573C110.144 118.649 108.858 97.0425 105.489 79.3217C101.944 60.6751 90.1575 48.4036 73.2851 40.1855C51.8225 29.7334 27.8066 25.1306 3.95508 26.1975C0.720873 26.3415 0.703264 31.3265 3.95508 31.1825C28.1001 30.1038 52.8292 34.8419 74.2037 46.2462C84.7281 51.8631 93.7439 59.5464 97.9848 70.8831C101.871 81.2675 102.393 92.8129 102.66 103.779C102.948 115.507 101.967 127.584 96.0889 138.033C90.9705 147.131 82.9407 154.261 73.8955 159.443C52.521 171.691 27.0259 172.032 3.01006 172.382C-0.232953 172.429 -0.241757 177.414 3.01006 177.367C38.962 176.844 86.5124 173.71 102.883 135.576L102.88 135.573Z" fill="#CFB7B7"/>
<path d="M69.323 152.974C85.7875 141.052 91.7306 121.306 93.2978 102.01C94.0433 92.8247 93.7615 83.1604 90.0636 74.5601C85.9607 65.0163 77.705 58.8703 68.8681 53.8001C49.7476 42.8279 27.6951 37.6841 5.64555 38.5248C2.40841 38.6482 2.39374 43.6332 5.64555 43.5098C25.3736 42.7573 45.0694 46.8664 62.5523 56.0369C71.2952 60.6221 80.5048 66.1685 84.91 75.3126C88.8721 83.5366 88.9718 93.1098 88.2469 102.007C86.712 120.906 80.5518 140.279 63.4915 150.875C46.035 161.718 24.8131 162.009 4.86195 162.229C1.61894 162.265 1.61013 167.25 4.86195 167.214C26.8968 166.971 50.7894 166.389 69.3172 152.971L69.323 152.974Z" fill="#CFB7B7"/>
<path d="M57.7362 143.021C69.0559 132.658 74.0393 115.075 75.9528 100.437C77.9838 84.8916 74.0305 69.9043 59.8258 61.3834C43.8309 51.7867 22.1482 50.0761 3.90519 50.5287C2.28515 50.5699 2.27928 53.0624 3.90519 53.0212C20.5898 52.6068 38.9414 54.194 54.2496 61.2894C71.0487 69.0755 75.903 84.8387 73.1882 102.054C71.0575 115.551 66.5026 131.773 55.9548 141.261C43.0091 152.906 21.3499 154.017 4.7739 153.362C3.15093 153.297 3.15387 155.79 4.7739 155.854C21.9751 156.536 44.3915 155.246 57.7392 143.024L57.7362 143.021Z" fill="#CFB7B7"/>
<path d="M50.7278 139.729C61.8098 130.098 64.9413 115.06 64.9941 101.108C65.044 87.825 66.0184 71.3798 52.6472 64.0405C38.8387 56.4602 20.088 55.7342 4.7651 57.0039C3.15973 57.1362 3.14506 59.6316 4.7651 59.4964C18.6792 58.3442 33.5883 59.2054 46.7628 64.1287C54.0471 66.8504 59.6468 71.4416 61.1025 79.3217C62.3997 86.3436 62.4877 93.9828 62.4701 101.11C62.4349 114.102 59.7172 128.178 49.6008 137.366C38.6538 147.31 21.5906 146.008 7.7381 146.904C6.12687 147.007 6.11513 149.503 7.7381 149.397C21.9604 148.477 39.2789 149.682 50.7249 139.732L50.7278 139.729Z" fill="#CFB7B7"/>
<path d="M42.9182 130.85C53.2606 124.407 57.2872 114.202 56.9908 102.404C56.7032 90.9583 54.728 79.6098 43.9571 73.4314C32.1443 66.6535 17.8633 68.5611 4.85314 66.871C3.24778 66.6623 3.26539 69.1578 4.85314 69.3635C15.5184 70.7479 26.841 69.5693 37.1336 73.0964C50.8511 77.7963 54.1352 89.0948 54.4697 102.407C54.775 114.493 50.3111 124.281 39.2525 130.053C28.7839 135.517 16.5779 135.429 5.04978 135.388C3.42681 135.382 3.42387 137.875 5.04978 137.881C17.8986 137.928 31.6689 137.863 42.9211 130.853L42.9182 130.85Z" fill="#CFB7B7"/>
<path d="M49.0461 100.702C48.2919 77.5405 19.6008 74.6748 2.12667 75.1215C0.50663 75.1627 0.50076 77.6552 2.12667 77.614C18.1656 77.2055 45.7738 79.1042 46.5251 100.705C47.2588 121.762 20.3902 125.271 4.89423 126.194C3.28006 126.291 3.27126 128.784 4.89423 128.687C21.8342 127.678 49.7828 123.27 49.0491 100.705L49.0461 100.702Z" fill="#CFB7B7"/>
<path d="M36.2326 102.057C37.0837 85.4619 17.7283 82.3962 4.78564 81.7613C3.16267 81.682 3.16854 84.1745 4.78564 84.2538C16.1171 84.8123 34.5333 87.1314 33.7115 102.057C32.9866 115.21 18.9316 120.051 7.52679 118.831C5.91556 118.658 5.9273 121.153 7.52679 121.324C20.4137 122.699 35.4901 116.556 36.2326 102.057Z" fill="#CFB7B7"/>
<path d="M24.907 98.6356C23.6831 91.2816 15.1574 87.0314 8.33975 89.6885C6.84591 90.2705 7.49744 92.6807 9.00889 92.0928C15.1251 89.7091 22.3449 93.7829 22.3683 100.493C22.3918 107.78 15.5067 112.603 8.81813 113.582C7.21863 113.817 7.89658 116.218 9.49021 115.986C17.6726 114.787 26.4038 107.653 24.907 98.6386V98.6356Z" fill="#CFB7B7"/>
<path d="M19.0901 102.177C19.0901 96.778 13.1089 93.0304 8.10789 94.5118C6.55536 94.9704 7.21863 97.3776 8.77997 96.9162C12.2137 95.8992 16.5632 98.3652 16.5691 102.177C16.572 105.978 12.3194 108.523 8.84748 107.533C7.28614 107.089 6.61699 109.49 8.1754 109.937C13.2263 111.377 19.0872 107.574 19.0901 102.177Z" fill="#CFB7B7"/>
</svg>
